<svg width="24" height="24" viewBox="0 0 24 24" fill="none" xmlns="http://www.w3.org/2000/svg">
<g id="LinkedIn svg" clip-path="url(#clip0_83_147)">
<path id="Path 2520" d="M20.2254 20.396H16.7763V14.8673C16.7763 13.5489 16.7534 11.8517 14.9825 11.8517C13.1861 11.8517 12.9112 13.2882 12.9112 14.7713V20.3956H9.46212V9.02634H12.7732V10.5801H12.8196C13.151 10.0001 13.6298 9.52308 14.2051 9.19967C14.7804 8.87626 15.4306 8.71862 16.0865 8.74354C19.5823 8.74354 20.2269 11.0971 20.2269 14.159L20.2254 20.396ZM5.57042 7.47224C5.17455 7.47231 4.78754 7.35223 4.45835 7.12717C4.12916 6.90212 3.87258 6.5822 3.72102 6.20787C3.56946 5.83355 3.52975 5.42163 3.60691 5.0242C3.68407 4.62677 3.87464 4.26169 4.15451 3.97513C4.43438 3.68856 4.79099 3.49337 5.17923 3.41425C5.56748 3.33513 5.96992 3.37562 6.33569 3.53062C6.70145 3.68561 7.01409 3.94814 7.23408 4.28501C7.45407 4.62188 7.57154 5.01796 7.57161 5.42316C7.57165 5.6922 7.51992 5.95861 7.41938 6.20719C7.31884 6.45577 7.17146 6.68165 6.98563 6.87193C6.7998 7.0622 6.57916 7.21315 6.33634 7.31615C6.09352 7.41915 5.83327 7.47219 5.57042 7.47224ZM7.29496 20.396H3.84229V9.02634H7.29496V20.396ZM21.9449 0.0963499H2.10913C1.65892 0.0911494 1.22508 0.269115 0.902992 0.59114C0.580904 0.913166 0.396913 1.3529 0.391418 1.81373V22.2012C0.396725 22.6623 0.580608 23.1023 0.902685 23.4247C1.22476 23.747 1.65869 23.9253 2.10913 23.9204H21.9449C22.3963 23.9262 22.8314 23.7484 23.1548 23.4261C23.4781 23.1037 23.6632 22.6632 23.6695 22.2012V1.81226C23.663 1.35052 23.4778 0.910281 23.1544 0.588263C22.8311 0.266246 22.396 0.0887885 21.9449 0.0948783" fill="white"/>
</g>
<defs>
<clipPath id="clip0_83_147">
<rect width="24" height="24" fill="white"/>
</clipPath>
</defs>
</svg>
